# xmcd
#
# Track frame offsets:
#	150
#	13382
#	27389
#	39591
#	53918
#	66777
#	77684
#	90868
#	104652
#	118382
#	129775
#	142534
#	153492
#	168321
#	180364
#
# Disc length: 2573 seconds
#
# Revision: 1
# Processed by: cddbd v1.5.2PL0 Copyright (c) Steve Scherf et al.
# Submitted via: audiograbber 1.83.01
#
DISCID=bb0a0b0f
DTITLE=B.B.King - Beale Street Blues Boys 03
DYEAR=1954
DGENRE=Blues
TTITLE0=B.B.King - Neighbourhood Affair (King - Bihari)
TTITLE1=B.B.King - Why Did You Leave Me (King - Taub)
TTITLE2=B.B.King - The Woman I Love (Clayton)
TTITLE3=B.B.King - Whole Lotta Love (Davis - Josea)
TTITLE4=B.B.King - Everyday I Have The Blues (Chatman)
TTITLE5=B.B.King - Love You Baby (King - Taub)
TTITLE6=B.B.King - When My Heart Beats Like a Hammer (Williamson)
TTITLE7=B.B.King - You Upset Me Baby (King - Taub)
TTITLE8=B.B.King - Sneakin' Around (Robinson)
TTITLE9=B.B.King - Bye Bye Baby (King - Taub)
TTITLE10=B.B.King - Praying to the Lord (King - Taub)
TTITLE11=B.B.King - Everything I Do is Wrong (King)
TTITLE12=B.B.King - Please Help Me (King - Taub)
TTITLE13=B.B.King - Don't You Want a Man Like Me (Taub)
TTITLE14=B.B.King - What Can I Do (King - Taub)
EXTD=
EXTT0=
EXTT1=
EXTT2=
EXTT3=
EXTT4=
EXTT5=
EXTT6=
EXTT7=
EXTT8=
EXTT9=
EXTT10=
EXTT11=
EXTT12=
EXTT13=
EXTT14=arr.by Ledeburgh
PLAYORDER=
